<?xml version="1.0" encoding="utf-8"?>
<!-- Generator: Adobe Illustrator 21.0.2, SVG Export Plug-In . SVG Version: 6.00 Build 0)  -->
<svg version="1.1" id="Ebene_1" xmlns="http://www.w3.org/2000/svg" xmlns:xlink="http://www.w3.org/1999/xlink" x="0px" y="0px"
	 viewBox="0 0 743 250" style="enable-background:new 0 0 743 250;" xml:space="preserve">
<style type="text/css">
	.st0{fill:#1DBBF1;}
	.st1{fill:#333333;}
	.st2{font-family:'OpenSans';}
	.st3{font-size:79.5385px;}
	.st4{font-size:139.1924px;}
	.st5{font-family:'OpenSans-Bold';}
	.st6{font-size:101.4601px;}
</style>
<g>
	<path class="st0" d="M115.5,33C166,33,207,74,207,124.5S166,216,115.5,216S24,175,24,124.5S65,33,115.5,33 M115.5,23
		C59.4,23,14,68.4,14,124.5S59.4,226,115.5,226S217,180.6,217,124.5S171.6,23,115.5,23L115.5,23z"/>
</g>
<text transform="matrix(1 0 0 1 43.6416 148.2793)"><tspan x="0" y="0" class="st1 st2 st3">x</tspan><tspan x="41.7" y="0" class="st1 st2 st4">y</tspan><tspan x="111.8" y="0" class="st1 st2 st3">z</tspan></text>
<text transform="matrix(1 0 0 1 249.999 159.5283)" class="st1 st5 st6">Company</text>
</svg>
